<svg xmlns="http://www.w3.org/2000/svg" version="1.1" xmlns:xlink="http://www.w3.org/1999/xlink" width="1000" height="1000"><g clip-path="url(#SvgjsClipPath1206)"><rect width="1000" height="1000" fill="#06151e"></rect><g transform="matrix(2.4464831804281344,0,0,2.4464831804281344,133.0275229357798,100)"><svg xmlns="http://www.w3.org/2000/svg" version="1.1" xmlns:xlink="http://www.w3.org/1999/xlink" width="300" height="327"><svg width="300" height="327" viewBox="0 0 300 327" fill="none" xmlns="http://www.w3.org/2000/svg">
<path d="M216.32 58.4062L205.653 94.443L194.987 58.4062L158.987 47.7287L194.987 37.0511L205.653 1.0144L216.32 37.0511L252.32 47.7287L216.32 58.4062ZM258.987 89.1042L285.653 74.4226L270.987 101.116L285.653 127.81L258.987 113.129L232.32 127.81L246.987 101.116L232.32 74.4226L258.987 89.1042Z" fill="white"></path>
<path d="M105.967 233.591C106.807 234.091 107.769 234.35 108.747 234.339C109.725 234.341 110.687 234.083 111.533 233.591L122.947 226.778C123.787 226.238 124.481 225.499 124.966 224.626C125.451 223.752 125.713 222.772 125.727 221.773V208.079C125.697 207.083 125.429 206.108 124.945 205.238C124.461 204.367 123.776 203.625 122.947 203.074L120.5 201.665L113.98 197.748L111.467 196.267C110.623 195.769 109.659 195.513 108.68 195.526C107.703 195.52 106.741 195.773 105.893 196.26L94.4934 203.08C93.6514 203.617 92.9555 204.355 92.468 205.227C91.9805 206.1 91.7167 207.079 91.7001 208.079V221.779C91.7001 223.668 92.8534 225.763 94.4867 226.778L98.8334 229.34L101.687 231.029L105.967 233.591ZM101.007 219.15V210.708C101.007 210.508 101.207 210.174 101.34 210.041L108.407 205.85C108.473 205.85 108.607 205.783 108.747 205.783C108.947 205.783 109.087 205.85 109.087 205.85L109.833 206.317L116.153 210.101C116.287 210.167 116.487 210.568 116.487 210.781V219.217C116.487 219.417 116.287 219.751 116.153 219.884L109.087 224.075C109.02 224.075 108.887 224.142 108.753 224.142C108.553 224.142 108.407 224.075 108.407 224.075L106.573 222.994L103.247 221.039L101.347 219.891C101.213 219.69 101.013 219.357 101.013 219.15H101.007ZM93.6067 238.049L90.4801 236.161C88.2411 239.584 86.2215 243.146 84.4334 246.825C84.0334 247.692 83.5467 248.647 83.1401 249.528C77.5067 262.14 76.0734 272.204 80.0201 272.004C80.1534 272.004 80.3534 271.937 80.4934 271.937C81.5801 271.67 82.9401 270.723 84.4334 269.234C84.8401 268.834 85.2467 268.36 85.7267 267.886C89.4601 263.702 93.8067 256.608 97.3401 248.713C98.0867 247.092 98.6934 245.477 99.3067 243.922C99.5734 243.181 99.7801 242.574 99.9867 241.826L96.3201 239.604L93.6067 238.049ZM119.547 248.787C123.08 256.682 127.427 263.702 131.16 267.953C131.567 268.42 132.047 268.901 132.453 269.301C133.947 270.789 135.307 271.73 136.387 272.004C136.593 272.071 136.733 272.071 136.867 272.071C140.8 272.271 139.447 262.214 133.74 249.594C133.352 248.674 132.923 247.773 132.453 246.892C130.736 243.266 128.76 239.769 126.54 236.428L116.833 242.233C117.033 242.834 117.167 243.381 117.44 244.055C118.12 245.544 118.8 247.098 119.547 248.787Z" fill="white"></path>
<path d="M212.8 167.704L187.867 183.1V247.566C187.867 249.387 185.767 253.171 184.267 254.039L113.307 296.509C112.907 296.776 111.473 297.176 109.707 297.176C107.94 297.176 106.513 296.776 106.107 296.509L87.4268 285.364L54.0801 265.39L35.2001 254.112L34.9334 253.979L28.4068 258.03C26.182 259.402 23.6198 260.127 21.0068 260.125C14.4868 260.125 8.84676 256.074 4.70009 251.823C6.12676 262.488 12.7868 273.218 21.5468 278.484L48.3068 294.48L65.8401 305.011L92.4534 320.947C97.2801 323.843 103.32 325.398 109.64 325.398C115.887 325.398 122 323.85 126.82 320.947L197.793 278.484C207.707 272.544 214.973 259.585 214.973 247.699V166.016C214.304 166.648 213.576 167.215 212.8 167.711V167.704ZM31.5334 162.786C31.5334 160.957 33.6268 157.18 35.1334 156.299L106.1 113.849C106.573 113.582 107.933 113.175 109.7 113.175C111.533 113.175 112.9 113.576 113.3 113.843L114.113 114.31L140.807 97.853L126.88 89.4778C122.06 86.6416 116.013 85.0867 109.707 85.0867C103.46 85.0867 97.3468 86.6416 92.5201 89.5445L21.6068 131.934C11.6934 137.874 4.42676 150.834 4.42676 162.719V206.05L31.5268 189.246L31.5334 162.786ZM129.733 161.905C124.167 152.996 119.82 143.339 117.847 134.43L61.6134 169.199C55.5668 172.91 57.7468 187.151 66.4334 201.058C71.0534 208.419 76.4868 213.951 81.5134 217.121V208.079C81.5134 202.606 84.5668 197.201 89.1868 194.445L100.667 187.625C103.095 186.196 105.863 185.45 108.68 185.462C111.533 185.462 114.32 186.21 116.693 187.625L119.207 189.113L125.727 193.023L128.173 194.445C128.987 194.912 129.733 195.593 130.413 196.267L149.367 184.521C141.893 178.582 134.9 170.147 129.733 161.905ZM138.427 156.566C149.7 174.585 164.507 185.663 171.507 181.345L207.44 159.135C214.433 154.818 210.9 136.726 199.627 118.694C188.347 100.683 173.54 89.6046 166.547 93.929L130.613 116.138C123.62 120.456 127.153 138.541 138.427 156.566ZM169.673 103.786C174.9 102.231 185.767 111.547 193.92 124.714C202.067 137.807 204.38 149.753 199.147 151.308C193.92 152.862 183.053 143.546 174.9 130.38C166.753 117.286 164.44 105.407 169.673 103.786Z" fill="white"></path>
<path d="M23.0401 249.387L69.4934 220.625C64.9818 216.422 61.0515 211.635 57.8067 206.39C54.34 200.918 51.7667 195.179 50.14 189.72L3.67338 218.543C0.0733831 220.772 1.42672 229.541 6.79338 238.049C12.0934 246.558 19.36 251.683 23.0267 249.394L23.0401 249.387Z" fill="white"></path>
</svg></svg></g></g><defs><clipPath id="SvgjsClipPath1206"><rect width="1000" height="1000" x="0" y="0" rx="200" ry="200"></rect></clipPath></defs></svg>